<svg xmlns="http://www.w3.org/2000/svg" width="8" height="8" viewBox="0 0 8 8"><path id="Icon_material-copyright" fill="#fff" d="M6.232,6.544a1.023,1.023,0,0,1,.12-.348.7.7,0,0,1,.236-.248.71.71,0,0,1,.364-.092.725.725,0,0,1,.252.052.645.645,0,0,1,.208.144.77.77,0,0,1,.136.212A.7.7,0,0,1,7.6,6.52H8.32A1.432,1.432,0,0,0,8.208,6a1.2,1.2,0,0,0-.28-.4A1.306,1.306,0,0,0,7.5,5.336a1.545,1.545,0,0,0-.556-.092,1.563,1.563,0,0,0-.68.136,1.376,1.376,0,0,0-.48.368,1.5,1.5,0,0,0-.284.544,2.343,2.343,0,0,0-.1.656v.108a2.342,2.342,0,0,0,.092.656,1.454,1.454,0,0,0,.284.54,1.366,1.366,0,0,0,.48.364,1.623,1.623,0,0,0,.68.136,1.526,1.526,0,0,0,.528-.092A1.364,1.364,0,0,0,7.9,8.408a1.221,1.221,0,0,0,.3-.376,1.077,1.077,0,0,0,.12-.46H7.6a.57.57,0,0,1-.06.232.589.589,0,0,1-.144.184.63.63,0,0,1-.208.12.794.794,0,0,1-.24.04.679.679,0,0,1-.356-.092.7.7,0,0,1-.236-.248,1.045,1.045,0,0,1-.12-.352,2.7,2.7,0,0,1-.032-.4V6.948a2.665,2.665,0,0,1,.032-.4ZM7,3a4,4,0,1,0,4,4A4,4,0,0,0,7,3Zm0,7.2A3.2,3.2,0,1,1,10.2,7,3.2,3.2,0,0,1,7,10.2Z" data-name="Icon material-copyright" opacity=".6" transform="translate(-3 -3)"/></svg>