<svg xmlns="http://www.w3.org/2000/svg" width="49.648" height="49.648" viewBox="0 0 49.648 49.648">
  <path id="Icon_metro-earth2" data-name="Icon metro-earth2" d="M27.394,51.576A24.824,24.824,0,1,1,52.218,26.752,24.825,24.825,0,0,1,27.394,51.576Zm20.12-26.9a.155.155,0,0,0,.078-.109.756.756,0,0,0,.239.436c0,.016,0,.012,0,.034.012,0,.022-.009.033-.009a.75.75,0,0,0,.473.177.765.765,0,0,0,.649-.374.373.373,0,0,1,.033.037c0-.025,0-.05-.008-.074a.753.753,0,0,0,.1-.365.777.777,0,0,0-.776-.776.766.766,0,0,0-.639.36c-.006,0,0-.023-.017-.017a.7.7,0,0,0-.119-.371v.8A.811.811,0,0,1,47.514,24.671Zm-35.647-.233c0-.234-.534-.633-.672-.633,0-.042-.217-.52-.3-.52,0-.161-.566-.886-.656-.569-.059.2.433.481.433.718.092,0,.476.729.552.856.841,1.421-.628.45-.628-.152a1.978,1.978,0,0,1-.484-1,3.208,3.208,0,0,1-.41-.779c0-.453-.25-.67-.746-.67-.023-.045-.441-.631-.448-.631a1.644,1.644,0,0,0-.521-.855,6.015,6.015,0,0,1-.11-1.263,4.279,4.279,0,0,0-.164-1.328A21.651,21.651,0,0,0,19.941,47.134c.009-.77.067-1.691.242-1.691,0-.115.1-.6.186-.6a9.4,9.4,0,0,0,0-1c-.11-.222.146-.506.223-.855.43-.216.126-2.378.45-2.378a14.738,14.738,0,0,0,.073-2.714c.082,0-.489-.607-.484-.6-.548,0-.931-.878-.931-1.263a2.341,2.341,0,0,1-.188-.631c.126,0-.784-1.328-.784-1.3-.481-.267.026-.639.074-1.077-.417-.138,0-1.264.186-1.264a.35.35,0,0,1,.225-.3c.093.371.526-.185.186-.185,0-.245-.028-.77,0-.892,0-.379-.335-1.12-.6-.335-.279-.138-.984-.113-1.044-.557.043-.219-.4-.666-.559-.743.146-.382-.756-.892-1.081-.892,0-.082-.172-.045-.223-.149-.332,0-.408-.447-.783-.447-.433,0-.869-.3-1.268-.3-.133-.265-.752-.161-.9-.447-.324,0-.451-.614-.461-.841-.014-.279-.236-1.244-.624-1.244ZM43.294,11.988a.078.078,0,0,1-.012.034c.023,0,.051.026.078.037C43.336,12.036,43.316,12.013,43.294,11.988Zm.467.514a.5.5,0,0,1,.082.264c.054,0,.081-.028.124-.039C43.9,12.65,43.828,12.579,43.761,12.5Zm1.348,7.069c.025-.67-.559-.559-.743-.931-.192,0-.262-.149-.523-.149a.319.319,0,0,0-.4.121c-.4.152-.158-.194-.458-.194.014-.383-.138-.489-.56-.447-.242.546-.614.873-.559,1.488.178.04.147.081.112.259.237.012,1.677-.074,1.677-.223.05,0,.3.514.3.074.2,0,.306.47.783.334,0,.1.8-.332.371-.332Zm.076,7.917c.028-.137-.068-.2-.149-.335.213,0-.672-1.64-.672-1.9-.135-.067-.307-.535-.338-.706a1.782,1.782,0,0,1-.447-.743,2.7,2.7,0,0,1-.707-.929c.267.029.67.084.67-.261-.18,0-.206-.222-.036-.222-.056-.228.121-.393.16-.571a4.207,4.207,0,0,0,.138-.805,1.229,1.229,0,0,0-.521.112c0,.15-.455-.037-.521-.037-.1-.2-.807.254-1.005-.149-.321-.29-.234-.514-.338-.923-.053-.208-.337-.22-.509-.254-.486-.095-.135.579-.161.732.3,0-.188.369-.188.557-.5-.109-.335-.669-.631-.818-.088-.149-.019-.261-.225-.261,0-.2.105-.559-.112-.631,0-.1-.422-.135-.484-.261-.267,0-.887-1.008-1.078-.669-.119.217.1.27.146.447.386-.076.349.636.821.557a1.292,1.292,0,0,0,.036.3c.349-.082.309.259.484.259-.127.169-.531-.27-.42.1.064.214.028.4-.25.607,0-.231-.019-.855-.261-.855-.164-.329-.653-.25-.86-.557-.168,0-.233-.521-.521-.557a.583.583,0,0,1-.337.149c-.157.315-1.043.033-1.043.074-.014,0-.5,1.182-.524,1.337-.054.334-.323.34-.4.656-.04.158-1.013.084-1.013.2a.992.992,0,0,1-.784-.892,7,7,0,0,1,.15-1.339c.085.023.1.053.15.149.258-.1.858.064.858-.223q.375.009.223.3c.233.043.635.1.635-.223-.137,0-.15-.012-.15-.149.447-.464-.335-.883-.335-1.114-.158-.053-.481-.4-.251-.267.194.107.9.329.624-.143a.052.052,0,0,0,.036-.036c.079.056.413.4.413.074.092,0,.445-.223.149-.223.028-.168.022-.307.036-.41.473.254.209-.174.448-.334,0,.309.254-.149.41-.149.185-.275.607-.062.709-.372-.228-.074-.186-.645-.186-.853.275.045.58-.371.622-.085.016.11.029.414.085.456.408.214.3-.123.3-.334-.137,0-.318-.478-.337-.707-.112.016-.292.062-.337.147-.406,0-.683-.147-1.005-.147a5.764,5.764,0,0,1-.372-.484c-.227-.389.227-.276.3-.295,0-.369,1.538-.3,1.6-.894-.506,0,.521-.856.521-.853.343-.293.524-.546.951-.579.18-.012,2.181-.565,2.181-.315.081,0,.348.006.624.016A21.625,21.625,0,0,0,13,10.516a.55.55,0,0,1,.059.2c.2-.014.495-.144.56.113a1.275,1.275,0,0,1-.3-.039c.071.576-.251.223-.521.223a.75.75,0,0,0-.247-.1c-.082.078-.169.15-.251.228.009.025,0,.026.011.054.087,0,.042.135.29.217a5.529,5.529,0,0,0,.9.2,2.88,2.88,0,0,0,.6-.045c0-.031.512-.259.15-.259.05-.2-.042-.256-.262-.259.019-.217.535-.074.746-.074.161-.272,0-.239.147-.486.171-.3.374-.04.486-.33a.52.52,0,0,1,.374.368c.135.112.821,1.123.821.408.245.082.368.541.372.782.445-.065.484-.4.484-.745.1,0-.037-.166-.037-.223.166-.061.374.158.374-.073.071,0,.074.071.074.149.231.045.38-.026.521.023.1.034.048.541,0,.72-.056.227-.489.23-.489.335-.49.366.579.557.746.78a2.062,2.062,0,0,1-.484-.073c-.242,0-.828.256-1.044.073.3,0,.4-.361.448-.706a.533.533,0,0,0-.683.343c-.13.456-.433-.019-.585.289-.059.019-.6.268-.6.185-.605.085-.447.6-.447,1.153.24.144.729.555.707.78.543.1.742.154,1.23.223a.592.592,0,0,0,.3.185c0,.32.29.262.559.262,0-.408.475.34.521.483-.065,0,.112.417.149.559-.074-.026-.1,0-.074.074.236.087.61.062.672-.186-.227,0-.15-.259-.15-.41a.28.28,0,0,1,.037-.52c0,.211.768-.132.335-.3a.836.836,0,0,0,0-.808c-.11-.13-.248,0-.3-.2.293-.073.078-.631.074-.892.093-.036.335.059.335,0,.287,0,.765.363.932-.076.479.219.1.427.6.261a2.154,2.154,0,0,0,.635.669c0,.026-.014.186.11.186,0,.119-.074-.068-.074.147.07.008.448.076.448-.073.24,0,.41-.295.41-.52.15-.1.414.818.6.818.133.208.56.51.56.706.09.092.185.067.185.335.113,0,.337-.445.337-.037a.705.705,0,0,1,.448.408c-.268,0-.014.261-.152.261,0,.258-.576.053-.706.037-.178.8-1.255.225-1.907.431A2.221,2.221,0,0,0,21,18.008c.416,0,.6-.36.97-.484.3,0,.361-.183.635-.259,0,.076.074.036.074.112-.531,0-.208.343-.053.593a.639.639,0,0,0,.329.278,1.476,1.476,0,0,0-.126.281s0,0,0,0c-.1.034-.3.107-.337.186-.6.067-.3.026-.264-.118.022.051.237,0,.228.006-.036-.18-.09-.155-.037-.259-.326,0-.484.149-.746.149-.043.088-.272.3-.372.3a1.765,1.765,0,0,1-.448.78c0-.061-.531.334-.484.334-.118.191-.247.185-.3.483a2.5,2.5,0,0,0-.186.594c-.231.154-.317.78-.709.78-.24.478-.672.414-.672,1.041a3.274,3.274,0,0,1,.247,1.019c.056.262.143.535-.208.541-.025-.039-.27-.41-.225-.41a2.365,2.365,0,0,0-.3-.8c-.147-.206-.42.033-.635-.057-.092-.183-.711-.223-.931-.223.036.138.137.182.149.335a.846.846,0,0,1-.478.132c-.324-.045-.285-.3-.642-.262a1.078,1.078,0,0,0-.97,1.1,3.284,3.284,0,0,0,0,1.116c0,.315.261.543.261.78.253,0,.537.557.784.557.028.2-.124.228.3.225,0-.022.23-.144.261-.3-.292-.071,0-.447.186-.52,0,.265.372-.088.372-.112.042-.017.411-.149.411-.149,0-.3.281.029.074.149-.2,0-.186.335-.3.335-.048.239-.143.447-.2.68-.071.287.161.316.087.585a4.664,4.664,0,0,0,.9,0,.264.264,0,0,0-.037-.149c.433,0,.037.818.3.818,0,.309.149.549.149.743a.494.494,0,0,1,.261.557c.248.033.782.1.782-.223.377,0,.4.256.375.52.751,0,.281-.743.594-.743.029-.123.081-.144.154-.064.154.082.27-.154.393-.228a1.011,1.011,0,0,1,.2-.106c.105.064.115.045.161.116a1.118,1.118,0,0,0,.586-.237c.268.033.182.61.684.645a1.785,1.785,0,0,0,.842-.05c.043-.029.2.1.22.157.168,0,.155.146.227.143a.061.061,0,0,0,.076.036c.022.064.155.082.225.259,0,.161.335.189.335.3.24.121-.082.154.287.265a2.68,2.68,0,0,0,.61.182c.07-.265.3.036.411.036.059.121.09.029.147.149.346.289.118.177.261.484.166.109.219.487.264.706-.133,0-.039.51-.039.559-.161,0,.413.306.413-.076.236.039.391.3.559.3-.1.225.261.394.261.039.354.036.259.563.225.743.262,0,.338-.146.562-.174a1.517,1.517,0,0,1,.818-.265A1.55,1.55,0,0,1,30.5,34.509a1.532,1.532,0,0,1-1.316,1.5,2.714,2.714,0,0,1-.2.211c0,.074-.017.816-.039.816,0,.149-.113.967-.223.967,0,.42-.275.5-.372.892-.227.168-.839.447-.934.631-.175,0-.306.149-.484.149-.025.051-.4.41-.337.41-.028.264.02.884-.123,1.058-.1.115-.234.1-.174.282-.209,0,.012.149-.318.149a.738.738,0,0,0-.59.548.827.827,0,0,1-.36.717c0,.106-.484.137-.484.41.045,0,0,.506,0,.557a.882.882,0,0,0-.559.259c-.487,0-.428.05-.745.261,0,.065-.045.3-.112.3,0,.377-.268.034-.486.225.085,0,.194.371.149.371,0,.327-.2.355-.41.6-.1.065-.191.335-.261.335,0,.22-.11.42-.11.631.047,0,0,.095.036.183.1-.029.107-.147.149-.147,0-.186.3.11.112.11-.154.233-.32.237-.411.559-.093,0-.174.09-.242.2a21.594,21.594,0,0,0,23.952-9.129,5.953,5.953,0,0,1,.169-1.255c.152.112.265.321.372,0-.268-.053-.2-.146-.112-.371a.941.941,0,0,0,.476.127c.051-.1.092-.2.143-.295-.152-.118.057-.424.13-.275.039-.074.073-.152.109-.227-.017,0-.012.006-.037,0,0-.135.025-.118.113-.186a.136.136,0,0,0,0,.026,21.607,21.607,0,0,0,2.136-9.346c0-.11-.016-.216-.017-.326-.04.152-.116.317-.223.354,0,.1-1.109.58-1.043.78-.2,0-.881.2-1.007.445a1.731,1.731,0,0,0-.746.3c-.692,0-.56-.816-.894-.816Zm3.154-8.493h-.824c-.006-.008-.012-.009-.019-.02-.042,0-.217-.394-.149-.484a1.1,1.1,0,0,1,.133.009c-.07-.171-.146-.338-.222-.507a1.072,1.072,0,0,1-.546.275c0,.064-.33.706,0,.706a.113.113,0,0,0,.009.033.772.772,0,0,0,.065,1.541h.306c.019.141.095.264.366.324.085.358.725.486.821.11-.27,0-.182-.259-.158-.434h.217a.776.776,0,1,0,0-1.551Zm-2.26,10.088c.054,0,.413-.006.413-.07a3.791,3.791,0,0,0,1.081-.15c0,.481-.4.749-.337,1.227-.268,0-.15.276-.15.371-.174.107-.2.3-.41.41,0,.216-.484.572-.627.757-.161.206-.647.565-.711.827.017-.062-.887.942-.676.942,0,.188-.254,1.673.074,1.673,0,.13.281,1.376.11,1.376,0,.4-.261.645-.261.965-.127.087-.309.135-.372.262-.228,0-.338.484-.447.484,0,.517-.15.9-.15,1.486.042,0-.3.836-.3.891-.275.185-.97.847-.97,1.192,0,0-.484.68-.559.78a4.8,4.8,0,0,0-1.269.3c-.239,0-.856.188-1.005-.037,0-.236-.129-.535-.149-.856-.115,0-.133-.483-.261-.483a12.818,12.818,0,0,1-.6-1.525,2.5,2.5,0,0,0-.149-.631c0-.512-.374-.939-.374-1.412-.11,0-.338-1.039-.223-1.039a11.656,11.656,0,0,1,.27-1.51,3.591,3.591,0,0,0-.158-1.541c-.064,0-.278-.355-.3-.445a1.13,1.13,0,0,1-.41-.965,2.515,2.515,0,0,0,.225-1.339,1.666,1.666,0,0,0-.934-.112c-.24-.483-1.856-.185-2.313-.185,0,.264-1.125-.051-1.23-.261-.275,0-.819-.583-.819-.855a3.061,3.061,0,0,1-.782-1.524c-.261-.13-.182-.633-.039-.633a2.651,2.651,0,0,0-.152-.79c-.045-.157.152-.326.152-.512a2.242,2.242,0,0,1,.3-1.311,5.067,5.067,0,0,0,.293-.554c.155-.389.2-.019.411-.366.2-.1.317-.431.523-.594.09-.119.093-.169,0-.261a2.238,2.238,0,0,0,.261-.7c.292-.4.085-.22.372-.186.106-.115.281-.41.447-.41a.471.471,0,0,1,.411-.223c0,.223.608-.073.672-.073a1.717,1.717,0,0,1,.932-.447c0-.254,1.322.071,1.53.037v-.112c.282.067.8,1.2.745,1.451a2.907,2.907,0,0,1,.56,0c0,.24.453.3.659.31.287.014,1.129-.029,1.129-.422a.348.348,0,0,1,.375.408c.251.028,1.745.057,1.64.371.219,0,.275.374.484.374-.042.258.261.929.484.929a1.17,1.17,0,0,0,.337.779,2.721,2.721,0,0,0,.782,1.19c-.14.264.213.481.3.743-.02,0,.076.389.185.447,0,.264.555,1.339.86,1.339.02.13-.285.189.112.219Zm-8.054-8.324c.057-.222.188-.05.309-.009.287.093.188,0,.4-.1C38.734,21.253,38.387,20.794,38.025,20.758Zm-.785-1.116c.152,0,.194.683-.223.557,0-.169-.107-.483.113-.483.064.264.11.157.11-.074Zm-.185-.445c.172.074.248.05.223-.074.227.074-.029.236-.074.41C37.088,19.418,37.124,19.378,37.056,19.2Zm-3.992-3.309c-.366-.095.377-.2.41-.3a.173.173,0,0,1-.161-.237c.056-.129.147.154.275.09.151-.016.447-.24.295.194s-.3.763-.855.771C32.826,16.208,33.019,16.1,33.064,15.888Zm1.381-1.524c.3,0,.037.223-.029.223.051.02-.009.2-.009.259.279,0,.284-.174.484-.223-.042.25-.321.3-.048.512.144.113.292.247.234.419.355,0,.408.341.335.743.2,0,.188.009.188-.188.191.053.177.225,0,.225-.177.349-.641.334-.97.334,0-.27-.054-.287-.3-.211-.341.1-.074-.272-.068-.458.037,0,.774.034.335-.112-.023-.4-.113-.52-.484-.52,0-.273-.1-.253-.141-.552C33.9,14.374,34.313,14.847,34.444,14.365Zm-.113,2.416c0,.092-.186.164-.223.036.036.012.05,0,.036-.036Zm-3.058-3.992H29.722a.776.776,0,0,1,0-1.551h1.551a.776.776,0,0,1,0,1.551ZM22.234,26.519c.087,0,.188.034.188.112C22.309,26.631,22.163,26.738,22.234,26.519Zm-1.415.076c-.062.118-.565.1-.635-.039.186,0,.33.076.521,0,0-.1-.085-.185-.149-.3.2,0,.431.155.709.149,0-.172-.076.037,0-.186a.871.871,0,0,1,.41.408,5.534,5.534,0,0,0-.856-.036ZM19.178,25.7a1.045,1.045,0,0,1-.672-.335c.185.008.368.084.484-.112.473.048.515.374.9.374.071.126.478.414.085.451a.862.862,0,0,1-.793-.379Zm.3,1.041c-.138,0-.366.061-.261-.225C19.4,26.544,19.485,26.62,19.476,26.744Zm.261-.037-.223.037C19.535,26.572,19.7,26.379,19.736,26.707Zm1.379,1.634c-.029.1-.025.11-.147.11.012-.048.023-.1.036-.147ZM17.76,25.256c.036.012.074.026.112.037.048.185.149.093.261.037C18.132,25.546,17.633,25.608,17.76,25.256Z" transform="translate(-2.571 -1.928)" fill="#fff"/>
</svg>
