<svg xmlns="http://www.w3.org/2000/svg" width="46" height="46" viewBox="0 0 46 46"><g id="Group_248" data-name="Group 248" transform="translate(-0.16 0)"><path id="Icon_awesome-instagram" fill="#fff" d="M12.935,8.54a6.632,6.632,0,1,0,6.632,6.632A6.622,6.622,0,0,0,12.935,8.54Zm0,10.944a4.312,4.312,0,1,1,4.312-4.312,4.32,4.32,0,0,1-4.312,4.312ZM21.386,8.268a1.547,1.547,0,1,1-1.547-1.547A1.543,1.543,0,0,1,21.386,8.268Zm4.393,1.57a7.656,7.656,0,0,0-2.09-5.42,7.706,7.706,0,0,0-5.42-2.09c-2.136-.121-8.537-.121-10.673,0a7.7,7.7,0,0,0-5.42,2.084,7.681,7.681,0,0,0-2.09,5.42c-.121,2.136-.121,8.537,0,10.673a7.656,7.656,0,0,0,2.09,5.42,7.716,7.716,0,0,0,5.42,2.09c2.136.121,8.537.121,10.673,0a7.656,7.656,0,0,0,5.42-2.09,7.706,7.706,0,0,0,2.09-5.42c.121-2.136.121-8.532,0-10.667ZM23.019,22.8a4.365,4.365,0,0,1-2.459,2.459c-1.7.675-5.743.52-7.625.52s-5.928.15-7.625-.52A4.365,4.365,0,0,1,2.851,22.8c-.675-1.7-.52-5.743-.52-7.625s-.15-5.928.52-7.625A4.365,4.365,0,0,1,5.31,5.088c1.7-.675,5.743-.52,7.625-.52s5.928-.15,7.625.52a4.365,4.365,0,0,1,2.459,2.459c.675,1.7.52,5.743.52,7.625S23.695,21.1,23.019,22.8Z" data-name="Icon awesome-instagram" opacity=".6" transform="translate(10.072 7.828)"/><g id="Ellipse_11" fill="none" stroke="#fbfbfb" stroke-width="1" data-name="Ellipse 11" opacity=".6" transform="translate(0.16 0)"><circle cx="23" cy="23" r="23" stroke="none"/><circle cx="23" cy="23" r="22.5" fill="none"/></g></g></svg>