<svg xmlns="http://www.w3.org/2000/svg" width="46" height="46" viewBox="0 0 46 46">
  <g id="Group_247" data-name="Group 247" transform="translate(0.158 0)">
    <path id="Icon_awesome-linkedin-in" data-name="Icon awesome-linkedin-in" d="M4.374,19.54H.323V6.495H4.374ZM2.346,4.715A2.357,2.357,0,1,1,4.692,2.347,2.366,2.366,0,0,1,2.346,4.715ZM19.536,19.54H15.493V13.19c0-1.513-.031-3.454-2.106-3.454-2.106,0-2.429,1.644-2.429,3.345v6.46H6.911V6.495H10.8v1.78h.057a4.257,4.257,0,0,1,3.833-2.107c4.1,0,4.854,2.7,4.854,6.207V19.54Z" transform="translate(13.635 11.952)" fill="#fff" opacity="0.6"/>
    <g id="Ellipse_12" data-name="Ellipse 12" transform="translate(-0.158 0)" fill="none" stroke="#fbfbfb" stroke-width="1" opacity="0.6">
      <circle cx="23" cy="23" r="23" stroke="none"/>
      <circle cx="23" cy="23" r="22.5" fill="none"/>
    </g>
  </g>
</svg>
