<svg xmlns="http://www.w3.org/2000/svg" width="23.195" height="22.892" viewBox="0 0 23.195 22.892">
  <path id="Icon_awesome-search" data-name="Icon awesome-search" d="M22.879,19.791l-4.517-4.457a1.094,1.094,0,0,0-.77-.313h-.738A9.176,9.176,0,0,0,18.847,9.3,9.36,9.36,0,0,0,9.424,0,9.36,9.36,0,0,0,0,9.3a9.36,9.36,0,0,0,9.424,9.3,9.458,9.458,0,0,0,5.8-1.967v.729a1.065,1.065,0,0,0,.317.76l4.517,4.457a1.093,1.093,0,0,0,1.536,0l1.282-1.265a1.068,1.068,0,0,0,0-1.52ZM9.424,15.021a5.723,5.723,0,1,1,5.8-5.722A5.758,5.758,0,0,1,9.424,15.021Z" fill="#fff" opacity="0.6"/>
</svg>
