<svg xmlns="http://www.w3.org/2000/svg" width="31.825" height="31.409" viewBox="0 0 31.825 31.409"><path id="Icon_awesome-search" d="M31.392,27.155l-6.2-6.116a1.5,1.5,0,0,0-1.057-.429H23.124a12.59,12.59,0,0,0,2.735-7.852A12.843,12.843,0,0,0,12.93,0,12.843,12.843,0,0,0,0,12.759,12.843,12.843,0,0,0,12.93,25.517a12.977,12.977,0,0,0,7.957-2.7v1a1.461,1.461,0,0,0,.435,1.043l6.2,6.116a1.5,1.5,0,0,0,2.107,0l1.759-1.736a1.465,1.465,0,0,0,.006-2.086ZM12.93,20.61a7.852,7.852,0,1,1,7.957-7.852A7.9,7.9,0,0,1,12.93,20.61Z" data-name="Icon awesome-search" opacity=".8"/></svg>