<svg xmlns="http://www.w3.org/2000/svg" width="46" height="46" viewBox="0 0 46 46"><g id="Group_249" data-name="Group 249" transform="translate(0.105 0)"><path id="Icon_ionic-logo-twitter" fill="#fff" d="M26.923,6.96a10.581,10.581,0,0,1-3.006.827,5.252,5.252,0,0,0,2.3-2.9A10.4,10.4,0,0,1,22.9,6.16a5.232,5.232,0,0,0-9.055,3.579,5.124,5.124,0,0,0,.135,1.195A14.832,14.832,0,0,1,3.186,5.457a5.244,5.244,0,0,0,1.627,6.995A5.112,5.112,0,0,1,2.435,11.8v.065A5.238,5.238,0,0,0,6.635,17a5.268,5.268,0,0,1-1.378.184,4.937,4.937,0,0,1-.984-.1,5.242,5.242,0,0,0,4.892,3.638,10.493,10.493,0,0,1-6.5,2.243,10.608,10.608,0,0,1-1.249-.076,14.629,14.629,0,0,0,8.011,2.368,14.8,14.8,0,0,0,14.9-14.909c0-.227-.005-.454-.016-.676A10.654,10.654,0,0,0,26.923,6.96Z" data-name="Icon ionic-logo-twitter" opacity=".6" transform="translate(10.187 9.399)"/><g id="Ellipse_10" fill="none" stroke="#fbfbfb" stroke-width="1" data-name="Ellipse 10" opacity=".6" transform="translate(-0.105 0)"><circle cx="23" cy="23" r="23" stroke="none"/><circle cx="23" cy="23" r="22.5" fill="none"/></g></g></svg>