<svg xmlns="http://www.w3.org/2000/svg" width="32.667" height="31.408" viewBox="0 0 32.667 31.408"><path id="Icon_awesome-user-alt" d="M16.333,17.667a9.018,9.018,0,0,0,9.187-8.834A9.018,9.018,0,0,0,16.333,0,9.018,9.018,0,0,0,7.146,8.834,9.018,9.018,0,0,0,16.333,17.667ZM24.5,19.63H20.984a11.511,11.511,0,0,1-9.3,0H8.167A8.013,8.013,0,0,0,0,27.482v.982a3.006,3.006,0,0,0,3.062,2.945H29.6a3.006,3.006,0,0,0,3.062-2.945v-.982A8.013,8.013,0,0,0,24.5,19.63Z" data-name="Icon awesome-user-alt" opacity=".8"/></svg>